<?xml version="1.0" encoding="utf-8"?>
<!-- Generator: Adobe Illustrator 26.0.1, SVG Export Plug-In . SVG Version: 6.00 Build 0)  -->
<svg version="1.1" id="Layer_1" xmlns="http://www.w3.org/2000/svg" xmlns:xlink="http://www.w3.org/1999/xlink" x="0px" y="0px"
	 viewBox="0 0 434 62" style="enable-background:new 0 0 434 62;" xml:space="preserve">
<g>
	<g>
		<path d="M166.24,35.32c0-1.92-0.84-2.8-2.84-3.76l-1.76-0.84c-4.96-2.36-7.64-4.76-7.64-9.32c0-4.88,3.88-7.84,10.32-7.84
			c2.92,0,5.92,0.72,7.96,2l-0.36,5.76h-4.16l-0.92-6.04l3.48,1.08v2c-2.2-1.4-3.72-2.28-5.76-2.28c-1.96,0-3.6,1.4-3.6,3.28
			c0,1.96,1.12,2.92,3.28,3.96l2,0.96c5.04,2.4,7.16,4.56,7.16,8.72c0,4.72-3.48,8.24-10.84,8.24c-3,0-6.56-0.56-9.04-2.08
			l0.24-6.08H158l1.04,6.6l-3.28-0.92v-1.92c2.56,1.2,4.32,1.88,6.84,1.88C165.08,38.72,166.24,37.12,166.24,35.32z"/>
		<path d="M184.44,11.61l0.68,0.44l-0.16,5.56v14.04c0,2.6,0.04,7.52,0.12,8.8h-7.84c0.08-1.28,0.12-6.2,0.12-8.4V15.61l-2.16-0.4
			v-1.8L184.44,11.61z M186.72,38.4v2.04h-11.24V38.4l3.44-0.8h3.92L186.72,38.4z M197.08,20.97L181,35.56v-2.52l12.64-12.08H197.08
			z M193.32,36.88l5.76,1.52v2.04h-9.28l-4.2-10.36l5.32-4.68l6.6,14.4L193.32,36.88z M192.76,23.45l-4.12-0.6v-1.88H198v1.88
			l-4.44,0.6H192.76z"/>
		<path d="M202.48,23.49l-3.52-0.64v-1.88h12.12v1.84l-3.12,0.68H202.48z M199.21,46.56c0.36-2,1.84-2.92,3.56-2.92
			c1.08,0,2.56,0.24,3.64,2l1.24,2.04l-1.48,0.6l-1.28-0.6c1.6-1.08,3.24-3.04,4.16-5.68l2.44-7.04l4.88-14h2.8l-8.44,21.84
			c-1.68,4.32-3.32,6.92-7.2,6.92C201.32,49.72,199.4,48.32,199.21,46.56z M209.4,43.12l-9.64-22.16h8.12l5,14L209.4,43.12z
			 M216.24,23.45l-3-0.6v-1.88h7.44v1.88l-3.68,0.6H216.24z"/>
		<path d="M230.24,16.73v-2.36h13.96v2.36l-6.2,0.6h-1.72L230.24,16.73z M237,37.48v2.96h-6.76v-2.36l6.04-0.6H237z M232.92,14.37
			h8.16c-0.12,4.04-0.12,8.2-0.12,12.4v1.84c0,3.56,0,7.72,0.12,11.84h-8.16c0.12-4.04,0.12-8.2,0.12-11.24v-2.44
			C233.04,22.65,233.04,18.49,232.92,14.37z M251.68,32.48l-0.4,7.96H237v-2.4h12.96l-3.36,2.4l1.56-7.96H251.68z"/>
		<path d="M262.36,34.08c0,2.08,0.72,2.72,1.76,2.72c1.4,0,3.28-1.84,4.16-3.4h1.8v2.88h-2.84l1.24-1.36
			c-1.76,3.76-4.4,6.16-7.96,6.16c-3.52,0-5.92-1.92-5.84-7.2l0.16-10.84l1.44,1.48l-3.52-0.8v-1.8l9.08-1.4l0.72,0.44l-0.2,5.68
			V34.08z M266.92,40.92l-0.24-4.72l0.16-13.2l1.44,1.52l-3.36-0.8v-1.6l8.84-1.6l0.72,0.44l-0.12,5.68v13.8l-3.32-3.08l5.16,1.08
			v2.04L266.92,40.92z"/>
	</g>
</g>
</svg>
